<svg width="36" height="36" viewBox="0 0 36 36" fill="none" xmlns="http://www.w3.org/2000/svg">
<rect y="6.10352e-05" width="36" height="36" rx="5.4733" fill="#FF9F10"/>
<path d="M23.7803 16.9741C24.4549 16.1764 24.8551 15.1358 24.8551 14.0028C24.8551 11.8524 23.4029 10.0372 21.4248 9.52851V7.06592H19.1379V9.37821H16.851V7.06592H14.5641V9.37821H11.1338V11.6905H13.4207V23.252H11.1338V25.5643H14.5641V27.8766H16.851V25.5643H19.1379V27.8766H21.4248V25.5643C23.9518 25.5643 25.9986 23.4948 25.9986 20.9397C25.9986 19.2633 25.1067 17.7834 23.7803 16.9741ZM15.7076 11.6905H20.2813C21.5391 11.6905 22.5682 12.731 22.5682 14.0028C22.5682 15.2746 21.5391 16.3151 20.2813 16.3151H15.7076V11.6905ZM21.4248 23.252H15.7076V18.6274H21.4248C22.6826 18.6274 23.7117 19.6679 23.7117 20.9397C23.7117 22.2115 22.6826 23.252 21.4248 23.252Z" fill="white"/>
</svg>
