<svg width="36" height="36" viewBox="0 0 36 36" fill="none" xmlns="http://www.w3.org/2000/svg">
<rect y="0.000244141" width="36" height="36" rx="5.4733" fill="#65C574"/>
<g clip-path="url(#clip0_553_830)">
<path d="M18.2771 6.44604C24.5055 6.44604 29.5541 11.4946 29.5541 17.7231C29.5541 23.9516 24.5055 29.0002 18.2771 29.0002C12.0486 29.0002 7 23.9516 7 17.7231C7 11.4946 12.0486 6.44604 18.2771 6.44604ZM20.6396 10.3648C20.4676 10.2802 20.2957 10.3648 20.2534 10.5361C20.2104 10.5791 20.2104 10.6221 20.2104 10.7074V11.3065L20.2174 11.3798C20.2542 11.5248 20.3433 11.651 20.4676 11.7343C23.8183 12.9325 25.5367 16.6539 24.2906 19.9475C23.6464 21.7448 22.229 23.1128 20.4676 23.7549C20.2957 23.8402 20.2104 23.9685 20.2104 24.1828V24.7818L20.2139 24.8439C20.2206 24.9116 20.2489 24.9753 20.2946 25.0257C20.3403 25.0761 20.4009 25.1104 20.4676 25.1237C20.5106 25.1237 20.5966 25.1237 20.6396 25.0814C21.6063 24.7795 22.5038 24.2894 23.2803 23.6392C24.0568 22.9891 24.697 22.1917 25.1641 21.2931C25.6312 20.3945 25.9159 19.4124 26.0019 18.4033C26.0878 17.3942 25.9733 16.3781 25.665 15.4134C24.8925 12.9748 23.0022 11.1345 20.6396 10.3648ZM16.0865 10.3225C16.0435 10.3225 15.9575 10.3225 15.9145 10.3648C14.9478 10.6667 14.0504 11.1568 13.2739 11.807C12.4974 12.4572 11.8571 13.2545 11.3901 14.1531C10.923 15.0517 10.6382 16.0338 10.5523 17.0429C10.4663 18.052 10.5808 19.0681 10.8892 20.0328C11.6617 22.4292 13.509 24.2687 15.9145 25.0384C16.0865 25.1237 16.2585 25.0384 16.3008 24.8671C16.3438 24.8248 16.3438 24.7811 16.3438 24.6959V24.0968L16.3367 24.0404C16.3071 23.9213 16.1964 23.7852 16.0865 23.7119C12.7358 22.5138 11.0175 18.7923 12.2636 15.4987C12.9078 13.7014 14.3252 12.3334 16.0865 11.6913C16.2585 11.606 16.3438 11.4777 16.3438 11.2635V10.6644L16.3402 10.6023C16.3335 10.5347 16.3052 10.4709 16.2596 10.4206C16.2139 10.3702 16.1532 10.3358 16.0865 10.3225ZM18.578 12.5469H17.9331L17.8711 12.5526C17.7301 12.5808 17.6272 12.702 17.5892 12.8895V13.8734L17.4433 13.896C16.2394 14.1102 15.4853 14.9412 15.4853 15.9695C15.4853 17.3806 16.3438 17.9367 18.1481 18.1509C19.3512 18.3645 19.7374 18.6218 19.7374 19.3061C19.7374 19.9898 19.1362 20.4606 18.3201 20.4606C17.2029 20.4606 16.8167 19.9905 16.6877 19.3484C16.6454 19.1779 16.5157 19.0919 16.3867 19.0919H15.6566L15.6009 19.0968C15.5314 19.108 15.4683 19.1441 15.4233 19.1982C15.3784 19.2524 15.3546 19.321 15.3563 19.3914V19.4337L15.3796 19.5606C15.584 20.5642 16.2719 21.2824 17.6329 21.4875V22.5145L17.6385 22.5765C17.6667 22.716 17.7886 22.8189 17.9768 22.8563H18.621L18.683 22.8507C18.824 22.8225 18.9269 22.7012 18.965 22.5145V21.4868L19.1109 21.4586C20.3182 21.2035 21.1125 20.3302 21.1125 19.2194C21.1125 17.7224 20.2104 17.2093 18.406 16.995C17.1169 16.8238 16.8597 16.4819 16.8597 15.8828C16.8597 15.2837 17.2896 14.8989 18.1481 14.8989C18.9213 14.8989 19.3512 15.1555 19.5655 15.7976C19.5878 15.8596 19.6286 15.9134 19.6824 15.9516C19.7362 15.9898 19.8004 16.0105 19.8664 16.0111H20.5536L20.6093 16.0069C20.6791 15.9958 20.7424 15.9597 20.7875 15.9054C20.8327 15.8511 20.8565 15.7822 20.8546 15.7116V15.6693L20.8285 15.5473C20.7227 15.1092 20.4814 14.7157 20.139 14.4226C19.7966 14.1295 19.3705 13.9519 18.9213 13.915V12.8895L18.9156 12.8275C18.8874 12.6872 18.7662 12.5843 18.578 12.5469Z" fill="white"/>
</g>
<defs>
<clipPath id="clip0_553_830">
<rect width="22.5541" height="22.5541" fill="white" transform="translate(7 6.44604)"/>
</clipPath>
</defs>
</svg>
